<svg width="238" height="63" viewBox="0 0 238 63" fill="none" xmlns="http://www.w3.org/2000/svg">
<path d="M32.255 24.1909H24.1912V32.2547H32.255V24.1909Z" fill="white"/>
<path d="M52.4093 24.1909H44.3455V32.2547H52.4093V24.1909Z" fill="white"/>
<path d="M12.0897 24.1909H4.02588V32.2547H12.0897V24.1909Z" fill="white"/>
<path d="M32.255 4.03857H24.1912V12.1024H32.255V4.03857Z" fill="white"/>
<path d="M32.255 44.3564H24.1912V52.4202H32.255V44.3564Z" fill="white"/>
<path d="M40.3092 16.1367H32.2454V24.2005H40.3092V16.1367Z" fill="white"/>
<path d="M48.3729 8.07031H40.3091V16.1341H48.3729V8.07031Z" fill="white"/>
<path d="M56.4364 0.00976562H48.3726V8.07355H56.4364V0.00976562Z" fill="white"/>
<path d="M16.1178 24.1909H24.1816V16.1271H16.1178V24.1909Z" fill="white"/>
<path d="M8.05266 16.1274H16.1165V8.06365L8.05266 8.06365L8.05266 16.1274Z" fill="white"/>
<path d="M0.000107765 8.06396L8.06396 8.06396L8.06396 0.000175476L0.000107765 0.000175476L0.000107765 8.06396Z" fill="white"/>
<path d="M40.3092 32.2578H32.2454V40.3216H40.3092V32.2578Z" fill="white"/>
<path d="M48.3729 40.3184H40.3091V48.3822H48.3729V40.3184Z" fill="white"/>
<path d="M56.4364 48.3818H48.3726V56.4456H56.4364V48.3818Z" fill="white"/>
<path d="M16.1178 40.3184H24.1816V32.2546H16.1178V40.3184Z" fill="white"/>
<path d="M8.05266 48.3818H16.1165V40.318H8.05266L8.05266 48.3818Z" fill="white"/>
<path d="M0.000107765 56.4458H8.06396L8.06396 48.382H0.000107765L0.000107765 56.4458Z" fill="white"/>
<path d="M83.4923 39.6881C81.1586 39.6881 79.178 39.201 77.5562 38.2215C75.9343 37.2474 74.6924 35.8611 73.8467 34.0734C72.9956 32.2857 72.5728 30.1982 72.5728 27.8111C72.5728 25.4239 72.9849 23.3043 73.8092 21.5273C74.6336 19.7503 75.8272 18.3748 77.3902 17.3953C78.9532 16.4158 80.8213 15.9287 83.0052 15.9287C84.7288 15.9287 86.2169 16.2499 87.4587 16.8975C88.7006 17.5451 89.6534 18.4765 90.3117 19.6968H90.4616V7.25781H96.1355V33.5596H98.9511V39.2331H93.1648V35.5774H91.5643C90.7507 36.8995 89.6748 37.9111 88.3259 38.6229C86.9823 39.3348 85.3712 39.6881 83.4923 39.6881ZM84.4826 34.7799C86.3079 34.7799 87.7638 34.2661 88.8397 33.2384C89.9156 32.2107 90.4563 30.8084 90.4563 29.0314V26.5961C90.4563 24.8191 89.9156 23.4167 88.8397 22.3891C87.7585 21.3614 86.3079 20.8476 84.4826 20.8476C82.4539 20.8476 80.9016 21.4631 79.8364 22.6942C78.7712 23.9252 78.236 25.6326 78.236 27.8164C78.236 30.0002 78.7712 31.7076 79.8364 32.9387C80.9016 34.1697 82.4486 34.7853 84.4826 34.7853V34.7799Z" fill="white"/>
<path d="M113.49 39.6885C111.13 39.6885 109.063 39.2015 107.286 38.222C105.509 37.2478 104.128 35.8669 103.138 34.0899C102.148 32.3129 101.655 30.2201 101.655 27.8115C101.655 25.403 102.142 23.3048 103.122 21.5278C104.096 19.7508 105.477 18.3753 107.254 17.3958C109.031 16.4163 111.114 15.9292 113.496 15.9292C116.44 15.9292 118.875 16.6732 120.802 18.1558C122.729 19.6384 123.949 21.7044 124.458 24.3432H118.784C118.404 23.2031 117.767 22.336 116.878 21.7526C115.99 21.1692 114.86 20.8748 113.49 20.8748C111.611 20.8748 110.113 21.4796 108.999 22.6839C107.881 23.8882 107.324 25.5956 107.324 27.8062C107.324 30.0167 107.881 31.7188 108.999 32.9285C110.118 34.1327 111.611 34.7376 113.49 34.7376C116.434 34.7376 118.238 33.469 118.896 30.932H124.608C124.126 33.6992 122.922 35.8509 120.989 37.3817C119.062 38.9178 116.563 39.6832 113.49 39.6832V39.6885Z" fill="white"/>
<path d="M130.662 13.8849C129.774 13.8849 129.019 13.5745 128.398 12.9536C127.777 12.3327 127.467 11.578 127.467 10.6895C127.467 9.80103 127.777 9.04634 128.398 8.42546C129.019 7.80458 129.774 7.49414 130.662 7.49414C131.551 7.49414 132.306 7.80458 132.927 8.42546C133.548 9.04634 133.858 9.80103 133.858 10.6895C133.858 11.578 133.548 12.3327 132.927 12.9536C132.306 13.5745 131.551 13.8849 130.662 13.8849ZM127.847 39.2339V16.3952H133.521V39.2339H127.847Z" fill="white"/>
<path d="M140.447 48.3721V22.0704H137.632V16.3968H143.455V20.0525H145.056C145.843 18.7359 146.908 17.7189 148.251 17.007C149.595 16.2952 151.222 15.9419 153.122 15.9419C155.483 15.9419 157.469 16.429 159.08 17.4085C160.691 18.3879 161.917 19.7635 162.752 21.5405C163.587 23.3175 164.01 25.4103 164.01 27.8242C164.01 30.2382 163.598 32.331 162.773 34.1026C161.949 35.8796 160.761 37.2552 159.214 38.2347C157.667 39.2142 155.799 39.7012 153.615 39.7012C151.891 39.7012 150.403 39.3694 149.161 38.711C147.92 38.0527 146.956 37.1267 146.266 35.9331H146.116V48.3828H140.442L140.447 48.3721ZM152.095 34.7824C154.15 34.7824 155.702 34.1668 156.757 32.9358C157.811 31.7047 158.336 29.9973 158.336 27.8135C158.336 25.6298 157.811 23.9223 156.757 22.6913C155.702 21.4602 154.15 20.8447 152.095 20.8447C150.291 20.8447 148.846 21.3585 147.754 22.3862C146.662 23.4139 146.116 24.8162 146.116 26.5932V29.0285C146.116 30.8055 146.662 32.2079 147.754 33.2355C148.846 34.2632 150.291 34.777 152.095 34.777V34.7824Z" fill="white"/>
<path d="M168.081 39.2331V7.25781H173.755V19.7825H173.905C174.638 18.5407 175.644 17.5933 176.913 16.9457C178.182 16.298 179.68 15.9769 181.404 15.9769C184.273 15.9769 186.548 16.8386 188.239 18.5675C189.926 20.2909 190.771 22.5925 190.771 25.456V39.2385H185.097V26.5265C185.097 24.7227 184.616 23.3525 183.652 22.4158C182.689 21.4792 181.281 21.0082 179.429 21.0082C177.577 21.0082 176.169 21.4792 175.206 22.4158C174.242 23.3525 173.76 24.7281 173.76 26.5265V39.2385H168.086L168.081 39.2331Z" fill="white"/>
<path d="M206.718 39.6895C204.256 39.6895 202.125 39.2025 200.321 38.223C198.517 37.2488 197.131 35.8626 196.151 34.0749C195.172 32.2872 194.685 30.173 194.685 27.7376C194.685 25.3023 195.167 23.2041 196.13 21.4378C197.094 19.6769 198.464 18.3174 200.241 17.3646C202.018 16.4119 204.1 15.9355 206.482 15.9355C208.864 15.9355 210.823 16.3851 212.499 17.2844C214.174 18.1836 215.47 19.4788 216.379 21.1649C217.295 22.8509 217.75 24.8527 217.75 27.1595V29.1399H200.161C200.364 31.0668 201.028 32.5494 202.157 33.5771C203.287 34.6047 204.791 35.1186 206.67 35.1186C208.067 35.1186 209.201 34.8563 210.079 34.3371C210.957 33.8179 211.573 33.0365 211.926 31.9981H217.637C217.102 34.4067 215.882 36.2961 213.965 37.6503C212.049 39.0098 209.63 39.6842 206.712 39.6842L206.718 39.6895ZM200.284 25.3023H212.311C212.081 23.7287 211.476 22.5297 210.486 21.7054C209.496 20.8812 208.163 20.469 206.488 20.469C204.812 20.469 203.479 20.8865 202.414 21.7269C201.349 22.5672 200.637 23.7554 200.284 25.3076V25.3023Z" fill="white"/>
<path d="M223.66 39.2291V22.0639H220.844V16.3903H226.631V20.8061H228.231C228.863 19.286 229.842 18.1299 231.165 17.3431C232.481 16.5563 233.996 16.1655 235.693 16.1655H237.599V21.0362H235.431C233.375 21.0362 231.834 21.6303 230.806 22.8239C229.778 24.0175 229.264 25.6018 229.264 27.5822V39.2291H223.671H223.66Z" fill="white"/>
<path d="M165.853 62.0227H163.778L157.485 53.6134H157.43V62.0227H155.628V50.9651H157.662L163.996 59.4699H164.051V50.9651H165.853V62.0227Z" fill="white"/>
<path d="M176.257 62.0227H168.394V50.9651H176.257V52.6032H170.292V55.4837H175.875V57.0945H170.292V60.3845H176.257V62.0227Z" fill="white"/>
<path d="M182.94 62.0227H181.056V52.6032H177.275V50.9651H186.722V52.6032H182.94V62.0227Z" fill="white"/>
<path d="M190.687 62.0227L187.465 50.9651H189.444L191.724 59.2788H191.792L194.263 50.9651H195.997L198.618 59.2788H198.673L200.925 50.9651H202.918L199.697 62.0227H197.758L195.151 53.5452H195.096L192.625 62.0227H190.687Z" fill="white"/>
<path d="M208.935 62.1865C207.816 62.1865 206.833 61.9544 205.986 61.4903C205.149 61.017 204.498 60.3527 204.034 59.4972C203.57 58.6417 203.338 57.6406 203.338 56.4939C203.338 55.3381 203.57 54.337 204.034 53.4906C204.498 52.6351 205.149 51.9753 205.986 51.5111C206.824 51.0379 207.807 50.8013 208.935 50.8013C210.064 50.8013 211.047 51.0333 211.884 51.4975C212.73 51.9616 213.381 52.6214 213.836 53.4769C214.3 54.3233 214.532 55.329 214.532 56.4939C214.532 57.6406 214.3 58.6417 213.836 59.4972C213.372 60.3527 212.721 61.017 211.884 61.4903C211.047 61.9544 210.064 62.1865 208.935 62.1865ZM208.935 60.5347C210.091 60.5347 210.992 60.1706 211.638 59.4426C212.293 58.7145 212.621 57.7316 212.621 56.4939C212.621 55.2471 212.298 54.2642 211.652 53.5452C211.006 52.8171 210.1 52.4531 208.935 52.4531C207.779 52.4531 206.874 52.8171 206.219 53.5452C205.572 54.2642 205.249 55.2471 205.249 56.4939C205.249 57.7407 205.572 58.7281 206.219 59.4562C206.874 60.1752 207.779 60.5347 208.935 60.5347Z" fill="white"/>
<path d="M216.483 62.0227V50.9651H221.971C223.118 50.9651 224.019 51.229 224.674 51.7569C225.329 52.2847 225.657 53.0264 225.657 53.982C225.657 54.5281 225.534 55.0059 225.288 55.4154C225.043 55.8159 224.679 56.1253 224.196 56.3437V56.3983C224.66 56.3983 225.02 56.5257 225.275 56.7806C225.53 57.0263 225.657 57.3858 225.657 57.859V62.0227H223.773V57.6406H218.381V62.0227H216.483ZM218.381 56.0297H221.821C222.449 56.0297 222.931 55.8796 223.268 55.5792C223.614 55.2789 223.787 54.8557 223.787 54.3097C223.787 53.7545 223.614 53.3313 223.268 53.0401C222.931 52.7398 222.449 52.5896 221.821 52.5896H218.381V56.0297Z" fill="white"/>
<path d="M228.002 62.0227V50.9651H229.899V55.8932H229.954L235.155 50.9651H237.503L232.548 55.6338L237.639 62.0227H235.346L231.169 56.7806L229.899 57.8044V62.0227H228.002Z" fill="white"/>
</svg>
