<svg xmlns="http://www.w3.org/2000/svg" xmlns:xlink="http://www.w3.org/1999/xlink" width="151" zoomAndPan="magnify" viewBox="0 0 113.25 33.749998" height="45" preserveAspectRatio="xMidYMid meet" version="1.0"><defs><clipPath id="a1e3e97c57"><path d="M 1 0 L 112.460938 0 L 112.460938 33.5 L 1 33.5 Z M 1 0 " clip-rule="nonzero"/></clipPath><clipPath id="2659957e7a"><path d="M 2.46875 1.945312 L 107.355469 1.945312 L 107.355469 31.28125 L 2.46875 31.28125 Z M 2.46875 1.945312 " clip-rule="nonzero"/></clipPath><clipPath id="07b952afe5"><path d="M 2.472656 1.945312 L 107.355469 1.945312 L 107.355469 31.28125 L 2.472656 31.28125 Z M 2.472656 1.945312 " clip-rule="nonzero"/></clipPath><clipPath id="3f6a0d21e2"><path d="M 60.523438 1.945312 L 108.832031 1.945312 L 108.832031 31.28125 L 60.523438 31.28125 Z M 60.523438 1.945312 " clip-rule="nonzero"/></clipPath><clipPath id="4d7d1472e4"><path d="M 60.523438 1.945312 L 108.824219 1.945312 L 108.824219 31.28125 L 60.523438 31.28125 Z M 60.523438 1.945312 " clip-rule="nonzero"/></clipPath><clipPath id="d8df078525"><path d="M 5.605469 7.503906 L 15.488281 7.503906 L 15.488281 26.039062 L 5.605469 26.039062 Z M 5.605469 7.503906 " clip-rule="nonzero"/></clipPath><clipPath id="c5e7f4b201"><path d="M 16 7.121094 L 27 7.121094 L 27 27 L 16 27 Z M 16 7.121094 " clip-rule="nonzero"/></clipPath><clipPath id="fb72b2c7b6"><path d="M 27 7.121094 L 32 7.121094 L 32 27 L 27 27 Z M 27 7.121094 " clip-rule="nonzero"/></clipPath><clipPath id="40adb970c7"><path d="M 32 7.121094 L 45 7.121094 L 45 27 L 32 27 Z M 32 7.121094 " clip-rule="nonzero"/></clipPath><clipPath id="5066a25a48"><path d="M 45 7.121094 L 56 7.121094 L 56 27 L 45 27 Z M 45 7.121094 " clip-rule="nonzero"/></clipPath><clipPath id="dc0e3ccce1"><path d="M 63.035156 7 L 72 7 L 72 27 L 63.035156 27 Z M 63.035156 7 " clip-rule="nonzero"/></clipPath><clipPath id="fdd8fd16ba"><path d="M 95 7 L 105.738281 7 L 105.738281 27 L 95 27 Z M 95 7 " clip-rule="nonzero"/></clipPath><clipPath id="2de78fbc94"><rect x="0" width="112" y="0" height="34"/></clipPath></defs><g clip-path="url(#a1e3e97c57)"><g transform="matrix(1, 0, 0, 1, 1, -0.000000000000001048)"><g clip-path="url(#2de78fbc94)"><g clip-path="url(#2659957e7a)"><path fill="#000000" d="M 2.46875 1.945312 L 107.324219 1.945312 L 107.324219 31.28125 L 2.46875 31.28125 Z M 2.46875 1.945312 " fill-opacity="1" fill-rule="nonzero"/></g><g clip-path="url(#07b952afe5)"><path stroke-linecap="butt" transform="matrix(0.0577065, 0, 0, 0.057452, 2.471139, 1.944769)" fill="none" stroke-linejoin="miter" d="M 0.0262995 0.00945257 L 1817.547934 0.00945257 L 1817.547934 510.625707 L 0.0262995 510.625707 Z M 0.0262995 0.00945257 " stroke="#ffffff" stroke-width="18" stroke-opacity="1" stroke-miterlimit="4"/></g><g clip-path="url(#3f6a0d21e2)"><path fill="#ffffff" d="M 60.523438 1.945312 L 108.867188 1.945312 L 108.867188 31.28125 L 60.523438 31.28125 Z M 60.523438 1.945312 " fill-opacity="1" fill-rule="nonzero"/></g><g clip-path="url(#4d7d1472e4)"><path stroke-linecap="butt" transform="matrix(0.0577065, 0, 0, 0.057452, 60.524344, 1.944769)" fill="none" stroke-linejoin="miter" d="M -0.0157103 0.00945257 L 837.059617 0.00945257 L 837.059617 510.625707 L -0.0157103 510.625707 Z M -0.0157103 0.00945257 " stroke="#ffffff" stroke-width="6" stroke-opacity="1" stroke-miterlimit="4"/></g><g clip-path="url(#d8df078525)"><path fill="#ffffff" d="M 15.476562 7.539062 L 15.476562 11.058594 L 9.738281 11.058594 C 9.574219 11.058594 9.4375 11.117188 9.332031 11.230469 C 9.226562 11.34375 9.171875 11.472656 9.171875 11.621094 L 9.171875 21.90625 C 9.171875 22.066406 9.226562 22.203125 9.332031 22.308594 C 9.4375 22.414062 9.574219 22.464844 9.738281 22.464844 L 15.476562 22.464844 L 15.476562 26.007812 L 9.738281 26.007812 C 8.984375 26.007812 8.292969 25.824219 7.664062 25.460938 C 7.03125 25.09375 6.535156 24.597656 6.164062 23.96875 C 5.796875 23.34375 5.613281 22.652344 5.613281 21.90625 L 5.613281 11.621094 C 5.613281 10.871094 5.796875 10.1875 6.164062 9.570312 C 6.535156 8.949219 7.03125 8.457031 7.664062 8.089844 C 8.292969 7.722656 8.984375 7.539062 9.738281 7.539062 Z M 15.476562 7.539062 " fill-opacity="1" fill-rule="nonzero"/></g><g clip-path="url(#c5e7f4b201)"><path fill="#ffffff" d="M 26.320312 18.609375 L 26.347656 26.058594 L 22.8125 26.058594 L 22.765625 18.632812 C 22.765625 18.484375 22.710938 18.359375 22.605469 18.253906 C 22.5 18.148438 22.363281 18.09375 22.199219 18.09375 L 20.261719 18.09375 L 20.261719 26.058594 L 16.703125 26.058594 L 16.703125 7.589844 L 21.367188 7.566406 C 22.378906 7.648438 23.277344 7.925781 24.0625 8.398438 C 24.847656 8.867188 25.460938 9.488281 25.902344 10.253906 C 26.34375 11.019531 26.566406 11.882812 26.566406 12.84375 C 26.566406 14.113281 26.183594 15.203125 25.414062 16.117188 C 25.988281 16.816406 26.289062 17.648438 26.320312 18.609375 Z M 20.777344 14.550781 C 20.90625 14.550781 21.09375 14.535156 21.339844 14.503906 C 21.585938 14.46875 21.835938 14.402344 22.089844 14.296875 C 22.34375 14.191406 22.558594 14.019531 22.738281 13.78125 C 22.917969 13.546875 23.007812 13.234375 23.007812 12.84375 C 23.007812 12.417969 22.910156 12.089844 22.714844 11.851562 C 22.519531 11.617188 22.289062 11.445312 22.027344 11.339844 C 21.765625 11.234375 21.515625 11.164062 21.277344 11.132812 C 21.042969 11.101562 20.875 11.082031 20.777344 11.082031 L 20.285156 11.082031 L 20.285156 14.550781 Z M 20.777344 14.550781 " fill-opacity="1" fill-rule="nonzero"/></g><g clip-path="url(#fb72b2c7b6)"><path fill="#ffffff" d="M 27.792969 7.515625 L 31.351562 7.515625 L 31.351562 26.007812 L 27.792969 26.007812 Z M 27.792969 7.515625 " fill-opacity="1" fill-rule="nonzero"/></g><g clip-path="url(#40adb970c7)"><path fill="#ffffff" d="M 40.917969 7.515625 L 44.671875 7.515625 L 44.671875 26.007812 L 41.113281 26.007812 L 41.113281 15.261719 L 38.660156 20.316406 L 36.132812 15.164062 L 36.132812 26.007812 L 32.578125 26.007812 L 32.578125 7.515625 L 36.332031 7.515625 L 38.636719 12.230469 Z M 40.917969 7.515625 " fill-opacity="1" fill-rule="nonzero"/></g><g clip-path="url(#5066a25a48)"><path fill="#ffffff" d="M 55.738281 7.539062 L 55.738281 11.058594 L 49.457031 11.058594 L 49.457031 14.503906 L 53.503906 14.503906 L 53.503906 18.046875 L 49.457031 18.046875 L 49.457031 22.464844 L 55.738281 22.464844 L 55.738281 26.007812 L 45.898438 26.007812 L 45.898438 7.515625 Z M 55.738281 7.539062 " fill-opacity="1" fill-rule="nonzero"/></g><g clip-path="url(#dc0e3ccce1)"><path fill="#000000" d="M 63.953125 26.453125 L 63.953125 7.246094 L 71.675781 7.246094 L 71.675781 10.980469 L 67.835938 10.980469 L 67.835938 14.042969 L 71.476562 14.042969 L 71.476562 17.730469 L 67.835938 17.730469 L 67.835938 26.453125 Z M 63.953125 26.453125 " fill-opacity="1" fill-rule="nonzero"/></g><path fill="#000000" d="M 72.734375 7.246094 L 76.460938 7.246094 L 76.460938 26.453125 L 72.734375 26.453125 Z M 72.734375 7.246094 " fill-opacity="1" fill-rule="nonzero"/><path fill="#000000" d="M 78.011719 26.453125 L 78.011719 7.246094 L 81.875 7.246094 L 81.875 23.1875 L 85.851562 23.1875 L 85.851562 26.453125 Z M 78.011719 26.453125 " fill-opacity="1" fill-rule="nonzero"/><path fill="#000000" d="M 86.925781 26.453125 L 86.925781 7.246094 L 94.652344 7.246094 L 94.652344 10.957031 L 90.859375 10.957031 L 90.859375 14.691406 L 94.496094 14.691406 L 94.496094 18.3125 L 90.859375 18.3125 L 90.859375 22.71875 L 94.902344 22.71875 L 94.902344 26.453125 Z M 86.925781 26.453125 " fill-opacity="1" fill-rule="nonzero"/><g clip-path="url(#fdd8fd16ba)"><path fill="#000000" d="M 100.761719 26.632812 C 99.011719 26.632812 97.746094 26.199219 96.964844 25.335938 C 96.1875 24.46875 95.796875 23.078125 95.796875 21.152344 L 95.796875 19.273438 L 99.59375 19.273438 L 99.59375 21.667969 C 99.59375 22.621094 99.898438 23.097656 100.515625 23.097656 C 100.859375 23.097656 101.097656 23 101.234375 22.796875 C 101.367188 22.59375 101.433594 22.257812 101.433594 21.78125 C 101.433594 21.152344 101.359375 20.636719 101.210938 20.226562 C 101.0625 19.816406 100.871094 19.472656 100.636719 19.195312 C 100.40625 18.921875 99.992188 18.492188 99.390625 17.910156 L 97.730469 16.257812 C 96.441406 15.003906 95.796875 13.617188 95.796875 12.097656 C 95.796875 10.457031 96.175781 9.210938 96.933594 8.351562 C 97.6875 7.496094 98.792969 7.066406 100.246094 7.066406 C 101.980469 7.066406 103.230469 7.527344 103.996094 8.441406 C 104.757812 9.359375 105.140625 10.792969 105.140625 12.746094 L 101.210938 12.746094 L 101.1875 11.425781 C 101.1875 11.171875 101.117188 10.972656 100.976562 10.824219 C 100.832031 10.675781 100.632812 10.597656 100.378906 10.597656 C 100.082031 10.597656 99.855469 10.683594 99.707031 10.847656 C 99.554688 11.007812 99.480469 11.234375 99.480469 11.515625 C 99.480469 12.144531 99.839844 12.792969 100.558594 13.460938 L 102.804688 15.609375 C 103.328125 16.117188 103.765625 16.597656 104.109375 17.050781 C 104.453125 17.503906 104.730469 18.042969 104.9375 18.660156 C 105.148438 19.277344 105.253906 20.011719 105.253906 20.863281 C 105.253906 22.757812 104.90625 24.191406 104.207031 25.167969 C 103.511719 26.144531 102.363281 26.632812 100.761719 26.632812 Z M 100.761719 26.632812 " fill-opacity="1" fill-rule="nonzero"/></g></g></g></g></svg>